<svg width="375" height="102" viewBox="0 0 375 102" fill="none" xmlns="http://www.w3.org/2000/svg">
<path d="M53.5 1.5498L65.0382 35.4014L65.1537 35.7401H65.5115L102.781 35.7401L72.6503 56.6087L72.3399 56.8237L72.4617 57.181L83.9837 90.9848L53.7847 70.0692L53.5 69.8721L53.2153 70.0692L23.0163 90.9848L34.5382 57.181L34.6601 56.8237L34.3497 56.6087L4.21857 35.7401L41.4885 35.7401H41.8463L41.9618 35.4014L53.5 1.5498Z" fill="white" stroke="black"/>
<path d="M321.5 1.5498L333.038 35.4014L333.154 35.7401H333.511L370.781 35.7401L340.65 56.6087L340.34 56.8237L340.462 57.181L351.984 90.9848L321.785 70.0692L321.5 69.8721L321.215 70.0692L291.016 90.9848L302.538 57.181L302.66 56.8237L302.35 56.6087L272.219 35.7401L309.489 35.7401H309.846L309.962 35.4014L321.5 1.5498Z" fill="white" stroke="black"/>
<path d="M187.5 1.5498L199.038 35.4014L199.154 35.7401H199.511L236.781 35.7401L206.65 56.6087L206.34 56.8237L206.462 57.181L217.984 90.9848L187.785 70.0692L187.5 69.8721L187.215 70.0692L157.016 90.9848L168.538 57.181L168.66 56.8237L168.35 56.6087L138.219 35.7401L175.489 35.7401H175.846L175.962 35.4014L187.5 1.5498Z" fill="white" stroke="black"/>
</svg>
